<?xml version="1.0" encoding="UTF-8"?>
<svg xmlns="http://www.w3.org/2000/svg" version="1.1" viewBox="0 0 71.8 52">
  <!-- Generator: Adobe Illustrator 28.6.0, SVG Export Plug-In . SVG Version: 1.2.0 Build 709)  -->
  <g>
    <g id="_Слой_1" data-name="Слой_1">
      <path d="M71.8,26.7l-4.4-2.9-2-8.3-1.2.3-.2,5.6-3.2,5.3-.9,8.1,2.2.5.9-1.1,2.1,2.4,1.6,7.3-.2,4.7h-2l-.8-6.6-1.5,2-3.2-.7-2.6-2.2-2.9,1,.2,4.7-2.3.6-3.4,2.6-4.1-.5-1.6-1-2.6.4.9,1-2,1.2-1.6-.8-3.1,1.4-4.7-2.4-1.8-4.2-1.5.2-1.8-1.5v-1.1c0,0-5.8-.6-5.8-.6l-.9,3.1-3.6-1.7-1.8-3.1h-3.8l-.4,4.9-2.2.7-1.1,4.4-.9-.8-3.6-9.3,4.3-2.1-.7-4.1-.7-4.2,1.9-2.7-.6-1.7,2.6-2.8s1,.2,1,.2l2.6-1.3,4.2-6.3,1.3-.5,1.4,6.4-1.8.3-1.4-2.6-1,4.1h4.5l4.7,1.2,1.9-1.2,3.2,3.3,1.4-6.1,2.2,2.3,1.4-1.9,2.2-.6,3.2-3.1.5-1.5,2.6.4,1.1,1.5-2,4.2,4.9-2.5v-1.2l1.9-.4,2,2.1,2-2.5v-1.7l3.3-2.4,1.4-2h2.1l3.8-7.8,3.2-3.4,1.2,1.9-1.9,2.4.7,1.6,1.8.3,1.5,6.5v5.4l2.6,3.6,1.3,5M64.5,33.7l3.9,5.9,1.3-.5-1.6-2.4-3.6-3.8v.9ZM24.4,21.6v-1.7l3-2.2,2.6-1.3h-3l-2.6,1.6-1.6,1.5v2.2h1.7ZM89.8,41h4.7v-5.2h2.6c4,0,6.6-2.3,6.6-6.1s-2.6-6.2-6.5-6.2h-7.5v17.5ZM94.6,32.1v-4.8h1.7c1.7,0,2.7.9,2.7,2.4s-1,2.4-2.7,2.4c0,0-1.7,0-1.7,0ZM111.6,41.2c4.2,0,6.8-2.7,6.8-6.8s-2.5-6.8-6.8-6.8-6.8,2.7-6.8,6.8,2.5,6.8,6.8,6.8ZM111.6,37.8c-1.3,0-2-1.3-2-3.3s.7-3.3,2-3.3,1.9,1.3,1.9,3.3-.7,3.3-1.9,3.3ZM126.6,41.2c3.9,0,6.2-2.2,6.3-5.7h-4.3c-.1,1.4-.8,2.1-1.9,2.1s-2-1.1-2-3.2.8-3.2,2-3.2,1.7.7,1.9,2.1h4.3c0-3.4-2.4-5.6-6.3-5.6s-6.8,2.7-6.8,6.8,2.5,6.8,6.8,6.7ZM141.1,41.2c3.9,0,6.2-2.2,6.3-5.7h-4.4c-.1,1.4-.8,2.1-1.9,2.1s-2-1.1-2-3.2.8-3.2,2-3.2,1.7.7,1.9,2.1h4.4c0-3.4-2.4-5.6-6.3-5.6s-6.8,2.7-6.8,6.8,2.5,6.8,6.8,6.7ZM153.7,35v-7.1h-4.4v13.1h4.4l3.6-7.1v7.1h4.4v-13.1h-4.4l-3.6,7.1ZM171.7,41h4.3v-13.1h-6.1c-3.8,0-6.1,1.9-6.1,4.6,0,1.5.9,2.7,2.4,3.5l-2.6,5.1h4.3l2.2-4.3h1.5v4.3h0ZM171.7,33.8h-1.7c-1.2,0-1.8-.6-1.8-1.2,0-.5.5-1.2,1.7-1.2h1.8v2.4h0Z"/>
    </g>
  </g>
</svg>